<?xml version="1.0" standalone="no"?>
<!DOCTYPE svg PUBLIC "-//W3C//DTD SVG 20010904//EN"
 "http://www.w3.org/TR/2001/REC-SVG-20010904/DTD/svg10.dtd">
<svg version="1.0" xmlns="http://www.w3.org/2000/svg"
 width="111.645049pt" height="73.853947pt" viewBox="0 0 111.645049 73.853947"
 preserveAspectRatio="xMidYMid meet">
<metadata>
Created by potrace 1.12, written by Peter Selinger 2001-2015
</metadata>
<g transform="translate(-0.354951,74.853947) scale(0.100000,-0.100000)"
fill="#000000" stroke="none">
<path d="M713 743 c-29 -6 -30 -33 -2 -33 11 0 34 -9 51 -21 33 -24 48 -18 30
11 -10 17 -10 20 3 20 10 0 25 -20 37 -47 44 -101 145 -210 170 -185 8 8 -3
24 -41 58 -72 64 -133 174 -97 174 8 0 29 -26 46 -59 46 -87 164 -202 191
-186 7 5 -14 30 -56 67 -55 51 -125 144 -125 170 0 4 9 10 20 13 11 4 18 11
15 16 -6 9 -198 11 -242 2z"/>
<path d="M225 604 c-82 -47 -163 -91 -178 -96 -32 -12 -31 -34 1 -31 12 2 94
43 183 93 89 50 173 90 188 90 14 0 52 -18 84 -39 l59 -39 -58 -33 c-32 -19
-67 -37 -77 -41 -22 -9 -17 -34 5 -32 9 1 77 38 151 83 75 44 141 81 147 81 6
0 27 -12 45 -26 31 -23 55 -26 55 -5 0 14 -79 61 -103 61 -13 0 -44 -13 -70
-30 -26 -16 -55 -30 -63 -30 -8 0 -42 18 -74 40 -91 62 -112 58 -295 -46z"/>
<path d="M43 433 c-22 -4 -23 -9 -23 -104 0 -92 1 -99 20 -99 17 0 19 8 22 78
3 75 4 77 28 77 33 0 37 -27 10 -65 l-21 -30 24 0 c45 0 76 59 56 104 -10 22
-67 50 -89 45 -3 -1 -15 -4 -27 -6z"/>
<path d="M738 425 c-31 -17 -58 -63 -58 -97 0 -69 86 -126 145 -97 42 21 69
63 68 105 -2 73 -92 124 -155 89z m92 -55 c11 -11 20 -29 20 -40 0 -26 -34
-60 -62 -60 -50 0 -76 63 -41 102 21 24 58 23 83 -2z"/>
<path d="M947 434 c-4 -4 -7 -52 -7 -106 l0 -98 26 0 c25 0 26 2 22 50 -1 28
0 50 4 50 3 0 25 -23 48 -50 61 -73 71 -66 73 53 1 57 -2 98 -8 101 -25 8 -35
-8 -35 -55 0 -27 -2 -49 -4 -49 -2 0 -28 25 -58 56 -29 30 -57 52 -61 48z"/>
<path d="M210 330 l0 -100 69 0 c50 0 70 4 74 14 8 21 -2 26 -50 26 -36 0 -43
3 -43 20 0 16 7 20 30 20 23 0 30 4 30 20 0 16 -7 20 -30 20 -23 0 -30 4 -30
20 0 17 7 20 45 20 38 0 45 3 45 20 0 18 -7 20 -70 20 l-70 0 0 -100z"/>
<path d="M400 330 l0 -100 70 0 c63 0 70 2 70 20 0 17 -7 20 -45 20 l-45 0 0
80 c0 79 0 80 -25 80 l-25 0 0 -100z"/>
<path d="M590 330 c0 -97 1 -101 21 -98 19 3 21 9 21 98 0 89 -2 95 -21 98
-20 3 -21 -1 -21 -98z"/>
<path d="M50 167 c-33 -16 -52 -55 -45 -91 9 -48 32 -66 86 -66 60 0 89 26 89
79 -1 72 -66 111 -130 78z m71 -37 c39 -21 16 -90 -30 -90 -14 0 -51 37 -51
50 0 13 37 50 51 50 6 0 19 -5 30 -10z"/>
<path d="M217 173 c-4 -3 -7 -42 -7 -85 l0 -78 44 0 c38 0 47 4 70 34 14 19
26 39 26 44 0 5 -20 28 -45 51 -41 38 -72 50 -88 34z m69 -112 c-25 -28 -36
-18 -36 32 l0 42 27 -27 c26 -27 26 -28 9 -47z"/>
<path d="M330 172 c0 -5 13 -26 30 -48 20 -27 30 -51 30 -76 0 -31 4 -38 20
-38 16 0 20 7 20 38 0 25 10 49 30 76 17 22 30 43 30 48 0 19 -40 6 -59 -19
l-21 -28 -21 28 c-19 25 -59 38 -59 19z"/>
<path d="M511 154 c-12 -15 -21 -29 -21 -33 1 -16 20 -33 51 -44 47 -16 47
-32 1 -32 -26 0 -37 -4 -37 -15 0 -11 13 -16 48 -18 54 -4 77 9 77 43 0 26
-18 43 -56 54 -15 4 -30 13 -32 20 -4 11 4 12 31 7 42 -8 60 10 32 31 -31 22
-71 16 -94 -13z"/>
<path d="M672 164 c-25 -17 -29 -56 -7 -74 8 -7 30 -16 48 -19 44 -9 35 -27
-13 -23 -40 2 -63 -14 -39 -29 8 -5 35 -9 62 -9 40 0 49 4 58 24 15 31 -3 64
-39 72 -47 10 -53 14 -47 25 4 6 19 7 35 4 35 -8 51 12 25 32 -25 17 -55 17
-83 -3z"/>
<path d="M817 173 c-4 -3 -7 -42 -7 -85 l0 -78 65 0 c50 0 65 3 65 14 0 10
-13 16 -42 18 -49 4 -66 28 -19 28 24 0 31 4 31 20 0 16 -7 20 -31 20 -47 0
-30 24 19 28 34 3 42 7 42 23 0 17 -7 19 -58 19 -32 0 -62 -3 -65 -7z"/>
<path d="M960 172 c0 -5 13 -26 30 -48 20 -27 30 -51 30 -76 0 -31 4 -38 20
-38 16 0 20 7 20 38 0 25 10 49 30 76 17 22 30 43 30 48 0 19 -40 6 -59 -19
l-21 -28 -21 28 c-19 25 -59 38 -59 19z"/>
</g>
</svg>
